<mxfile host="app.diagrams.net" modified="2022-04-29T18:50:46.278Z" agent="5.0 (X11; Linux x86_64) AppleWebKit/537.36 (KHTML, like Gecko) Chrome/96.0.4664.110 Safari/537.36" etag="surDvRpABUbNZTA8HZ2c" version="17.4.5" type="github" pages="2">
  <diagram id="NObHTL3DqPp1tpmNEmtb" name="Page-1">
    <mxGraphModel dx="1350" dy="773" grid="1" gridSize="10" guides="1" tooltips="1" connect="1" arrows="1" fold="1" page="1" pageScale="1" pageWidth="827" pageHeight="1169" math="0" shadow="0">
      <root>
        <mxCell id="0" />
        <mxCell id="1" parent="0" />
        <mxCell id="QOIeR0Ajo9bh3W5s2EL1-7" value="Developer1" style="text;html=1;align=center;verticalAlign=middle;resizable=0;points=[];autosize=1;strokeColor=none;fillColor=none;" vertex="1" parent="1">
          <mxGeometry x="64" y="975" width="80" height="20" as="geometry" />
        </mxCell>
        <mxCell id="QOIeR0Ajo9bh3W5s2EL1-8" value="Developer2" style="text;html=1;align=center;verticalAlign=middle;resizable=0;points=[];autosize=1;strokeColor=none;fillColor=none;" vertex="1" parent="1">
          <mxGeometry x="193" y="977" width="80" height="20" as="geometry" />
        </mxCell>
        <mxCell id="QOIeR0Ajo9bh3W5s2EL1-9" value="Developer3" style="text;html=1;align=center;verticalAlign=middle;resizable=0;points=[];autosize=1;strokeColor=none;fillColor=none;" vertex="1" parent="1">
          <mxGeometry x="328" y="977" width="80" height="20" as="geometry" />
        </mxCell>
        <mxCell id="QOIeR0Ajo9bh3W5s2EL1-12" value="" style="sketch=0;pointerEvents=1;shadow=0;dashed=0;html=1;strokeColor=none;fillColor=#505050;labelPosition=center;verticalLabelPosition=bottom;verticalAlign=top;outlineConnect=0;align=center;shape=mxgraph.office.devices.workstation_visual_studio;" vertex="1" parent="1">
          <mxGeometry x="77.5" y="910" width="53" height="59" as="geometry" />
        </mxCell>
        <mxCell id="QOIeR0Ajo9bh3W5s2EL1-13" value="" style="sketch=0;pointerEvents=1;shadow=0;dashed=0;html=1;strokeColor=none;fillColor=#505050;labelPosition=center;verticalLabelPosition=bottom;verticalAlign=top;outlineConnect=0;align=center;shape=mxgraph.office.devices.workstation_visual_studio;" vertex="1" parent="1">
          <mxGeometry x="205.5" y="911" width="53" height="59" as="geometry" />
        </mxCell>
        <mxCell id="QOIeR0Ajo9bh3W5s2EL1-14" value="" style="sketch=0;pointerEvents=1;shadow=0;dashed=0;html=1;strokeColor=none;fillColor=#505050;labelPosition=center;verticalLabelPosition=bottom;verticalAlign=top;outlineConnect=0;align=center;shape=mxgraph.office.devices.workstation_visual_studio;" vertex="1" parent="1">
          <mxGeometry x="337.5" y="912" width="53" height="59" as="geometry" />
        </mxCell>
        <mxCell id="QOIeR0Ajo9bh3W5s2EL1-25" value="&lt;h1&gt;&lt;br&gt;&lt;/h1&gt;" style="shape=image;html=1;verticalAlign=top;verticalLabelPosition=bottom;labelBackgroundColor=#ffffff;imageAspect=0;aspect=fixed;image=https://cdn3.iconfinder.com/data/icons/social-media-2068/64/_github-128.png;align=left;" vertex="1" parent="1">
          <mxGeometry x="195" y="735" width="78" height="78" as="geometry" />
        </mxCell>
        <mxCell id="QOIeR0Ajo9bh3W5s2EL1-26" value="&lt;b&gt;Application&lt;br&gt;&amp;nbsp;REPO&lt;br&gt;GitHub&lt;br&gt;&lt;/b&gt;" style="text;html=1;align=center;verticalAlign=middle;resizable=0;points=[];autosize=1;strokeColor=none;fillColor=none;fontSize=14;fontFamily=Helvetica;" vertex="1" parent="1">
          <mxGeometry x="271" y="750" width="90" height="60" as="geometry" />
        </mxCell>
        <mxCell id="QOIeR0Ajo9bh3W5s2EL1-27" value="" style="endArrow=none;html=1;rounded=0;fontFamily=Helvetica;fontSize=14;" edge="1" parent="1">
          <mxGeometry width="50" height="50" relative="1" as="geometry">
            <mxPoint x="113" y="833" as="sourcePoint" />
            <mxPoint x="355" y="833" as="targetPoint" />
          </mxGeometry>
        </mxCell>
        <mxCell id="QOIeR0Ajo9bh3W5s2EL1-28" value="Push to Dev branch" style="text;html=1;align=center;verticalAlign=middle;resizable=0;points=[];autosize=1;strokeColor=none;fillColor=none;fontSize=14;fontFamily=Helvetica;" vertex="1" parent="1">
          <mxGeometry x="165" y="814" width="140" height="20" as="geometry" />
        </mxCell>
        <mxCell id="QOIeR0Ajo9bh3W5s2EL1-30" value="" style="endArrow=none;html=1;rounded=0;fontFamily=Helvetica;fontSize=14;fontColor=none;" edge="1" parent="1">
          <mxGeometry width="50" height="50" relative="1" as="geometry">
            <mxPoint x="143" y="832" as="sourcePoint" />
            <mxPoint x="143" y="680" as="targetPoint" />
          </mxGeometry>
        </mxCell>
        <mxCell id="QOIeR0Ajo9bh3W5s2EL1-31" value="Pull from Dev branch" style="text;html=1;align=center;verticalAlign=middle;resizable=0;points=[];autosize=1;strokeColor=none;fillColor=none;fontSize=14;fontFamily=Helvetica;" vertex="1" parent="1">
          <mxGeometry x="162" y="832" width="150" height="20" as="geometry" />
        </mxCell>
        <mxCell id="QOIeR0Ajo9bh3W5s2EL1-32" value="Feature1" style="shape=flexArrow;endArrow=classic;startArrow=classic;html=1;rounded=0;fontFamily=Helvetica;fontSize=14;fontColor=none;align=right;" edge="1" parent="1">
          <mxGeometry width="100" height="100" relative="1" as="geometry">
            <mxPoint x="103" y="900" as="sourcePoint" />
            <mxPoint x="160" y="838" as="targetPoint" />
            <Array as="points">
              <mxPoint x="150" y="848" />
            </Array>
          </mxGeometry>
        </mxCell>
        <mxCell id="QOIeR0Ajo9bh3W5s2EL1-35" value="Feature2" style="shape=flexArrow;endArrow=classic;startArrow=classic;html=1;rounded=0;fontFamily=Helvetica;fontSize=14;fontColor=none;" edge="1" parent="1">
          <mxGeometry width="100" height="100" relative="1" as="geometry">
            <mxPoint x="231" y="914" as="sourcePoint" />
            <mxPoint x="231" y="850" as="targetPoint" />
          </mxGeometry>
        </mxCell>
        <mxCell id="QOIeR0Ajo9bh3W5s2EL1-37" value="Feature3" style="shape=flexArrow;endArrow=classic;startArrow=classic;html=1;rounded=0;fontFamily=Helvetica;fontSize=14;fontColor=none;align=left;" edge="1" parent="1">
          <mxGeometry width="100" height="100" relative="1" as="geometry">
            <mxPoint x="373" y="900" as="sourcePoint" />
            <mxPoint x="323" y="840" as="targetPoint" />
          </mxGeometry>
        </mxCell>
        <mxCell id="QOIeR0Ajo9bh3W5s2EL1-38" value="Create Pull&amp;nbsp;&lt;br&gt;request" style="text;html=1;align=center;verticalAlign=middle;resizable=0;points=[];autosize=1;strokeColor=none;fillColor=none;fontSize=14;fontFamily=Helvetica;" vertex="1" parent="1">
          <mxGeometry x="54" y="774" width="90" height="40" as="geometry" />
        </mxCell>
        <mxCell id="QOIeR0Ajo9bh3W5s2EL1-39" value="1.Git checkout&lt;br&gt;2.Lint Check&lt;br&gt;&amp;nbsp; &amp;nbsp; 3.Run tests&amp;nbsp;" style="text;html=1;align=center;verticalAlign=middle;resizable=0;points=[];autosize=1;strokeColor=none;fillColor=none;fontSize=14;fontFamily=Helvetica;" vertex="1" parent="1">
          <mxGeometry x="34" y="710" width="110" height="60" as="geometry" />
        </mxCell>
        <mxCell id="QOIeR0Ajo9bh3W5s2EL1-41" value="" style="endArrow=classic;startArrow=classic;html=1;rounded=0;fontFamily=Helvetica;fontSize=14;fontColor=none;" edge="1" parent="1">
          <mxGeometry width="50" height="50" relative="1" as="geometry">
            <mxPoint x="63" y="680" as="sourcePoint" />
            <mxPoint x="233" y="680" as="targetPoint" />
          </mxGeometry>
        </mxCell>
        <mxCell id="7nQZnzPYxCdb3EcRTdBK-2" value="" style="shape=image;html=1;verticalAlign=top;verticalLabelPosition=bottom;labelBackgroundColor=#ffffff;imageAspect=0;aspect=fixed;image=https://cdn1.iconfinder.com/data/icons/famous-brand-apps/100/_-07-128.png;fontFamily=Helvetica;fontSize=14;fontColor=none;" vertex="1" parent="1">
          <mxGeometry x="113" y="572" width="78" height="78" as="geometry" />
        </mxCell>
        <mxCell id="7nQZnzPYxCdb3EcRTdBK-3" value="job fails" style="text;html=1;align=center;verticalAlign=middle;resizable=0;points=[];autosize=1;strokeColor=none;fillColor=none;fontSize=14;fontFamily=Helvetica;fontColor=none;" vertex="1" parent="1">
          <mxGeometry x="73" y="658" width="60" height="20" as="geometry" />
        </mxCell>
        <mxCell id="7nQZnzPYxCdb3EcRTdBK-4" value="" style="endArrow=classic;html=1;rounded=0;fontFamily=Helvetica;fontSize=14;fontColor=none;" edge="1" parent="1">
          <mxGeometry width="50" height="50" relative="1" as="geometry">
            <mxPoint x="373" y="830" as="sourcePoint" />
            <mxPoint x="423" y="780" as="targetPoint" />
          </mxGeometry>
        </mxCell>
        <mxCell id="7nQZnzPYxCdb3EcRTdBK-6" value="successfull" style="text;html=1;align=center;verticalAlign=middle;resizable=0;points=[];autosize=1;strokeColor=none;fillColor=none;fontSize=14;fontFamily=Helvetica;fontColor=none;" vertex="1" parent="1">
          <mxGeometry x="149" y="660" width="80" height="20" as="geometry" />
        </mxCell>
        <mxCell id="7nQZnzPYxCdb3EcRTdBK-7" value="" style="endArrow=classic;html=1;rounded=0;fontFamily=Helvetica;fontSize=14;fontColor=none;" edge="1" parent="1">
          <mxGeometry width="50" height="50" relative="1" as="geometry">
            <mxPoint x="94" y="660" as="sourcePoint" />
            <mxPoint x="113" y="640" as="targetPoint" />
          </mxGeometry>
        </mxCell>
        <mxCell id="7nQZnzPYxCdb3EcRTdBK-8" value="" style="endArrow=classic;html=1;rounded=0;fontFamily=Helvetica;fontSize=14;fontColor=none;entryX=1.026;entryY=0.897;entryDx=0;entryDy=0;entryPerimeter=0;" edge="1" parent="1">
          <mxGeometry width="50" height="50" relative="1" as="geometry">
            <mxPoint x="208" y="654" as="sourcePoint" />
            <mxPoint x="184.02800000000002" y="641.966" as="targetPoint" />
          </mxGeometry>
        </mxCell>
        <mxCell id="7nQZnzPYxCdb3EcRTdBK-9" value="" style="endArrow=classic;html=1;rounded=0;fontFamily=Helvetica;fontSize=14;fontColor=none;" edge="1" parent="1">
          <mxGeometry width="50" height="50" relative="1" as="geometry">
            <mxPoint x="373" y="830" as="sourcePoint" />
            <mxPoint x="423" y="780" as="targetPoint" />
          </mxGeometry>
        </mxCell>
        <mxCell id="7nQZnzPYxCdb3EcRTdBK-10" value="" style="endArrow=classic;html=1;rounded=0;fontFamily=Helvetica;fontSize=14;fontColor=none;" edge="1" parent="1">
          <mxGeometry width="50" height="50" relative="1" as="geometry">
            <mxPoint x="202" y="618" as="sourcePoint" />
            <mxPoint x="283" y="660" as="targetPoint" />
          </mxGeometry>
        </mxCell>
        <mxCell id="7nQZnzPYxCdb3EcRTdBK-11" value="approve to merge" style="text;html=1;align=center;verticalAlign=middle;resizable=0;points=[];autosize=1;strokeColor=none;fillColor=none;fontSize=14;fontFamily=Helvetica;fontColor=none;" vertex="1" parent="1">
          <mxGeometry x="231" y="660" width="130" height="20" as="geometry" />
        </mxCell>
        <mxCell id="7nQZnzPYxCdb3EcRTdBK-13" value="Dev" style="rounded=1;whiteSpace=wrap;html=1;fontFamily=Helvetica;fontSize=14;fontColor=none;" vertex="1" parent="1">
          <mxGeometry x="271" y="685" width="108" height="50" as="geometry" />
        </mxCell>
      </root>
    </mxGraphModel>
  </diagram>
  <diagram id="-DrUBihFMBSCgufcM9-1" name="Page-2">
    <mxGraphModel dx="1350" dy="773" grid="1" gridSize="10" guides="1" tooltips="1" connect="1" arrows="1" fold="1" page="1" pageScale="1" pageWidth="827" pageHeight="1169" math="0" shadow="0">
      <root>
        <mxCell id="0" />
        <mxCell id="1" parent="0" />
      </root>
    </mxGraphModel>
  </diagram>
</mxfile>
